<?xml version="1.0" standalone="no"?>
<!DOCTYPE svg PUBLIC "-//W3C//DTD SVG 1.1//EN" "http://www.w3.org/Graphics/SVG/1.1/DTD/svg11.dtd" >
<svg xmlns="http://www.w3.org/2000/svg">
<metadata>
Created by FontForge 20120731 at Thu Jul 28 15:36:37 2016
 By admin
</metadata>
<defs>
<font id="iconfont" horiz-adv-x="1024" >
  <font-face 
    font-family="iconfont"
    font-weight="500"
    font-stretch="normal"
    units-per-em="1024"
    panose-1="2 0 6 3 0 0 0 0 0 0"
    ascent="896"
    descent="-128"
    x-height="792"
    bbox="0 -212 1038 896"
    underline-thickness="50"
    underline-position="-100"
    unicode-range="U+0078-EC99"
  />
<missing-glyph horiz-adv-x="374" 
d="M34 0v682h272v-682h-272zM68 34h204v614h-204v-614z" />
    <glyph glyph-name=".notdef" horiz-adv-x="374" 
d="M34 0v682h272v-682h-272zM68 34h204v614h-204v-614z" />
    <glyph glyph-name=".null" horiz-adv-x="0" 
 />
    <glyph glyph-name="nonmarkingreturn" horiz-adv-x="341" 
 />
    <glyph glyph-name="x" unicode="x" horiz-adv-x="1001" 
d="M281 543q-27 -1 -53 -1h-83q-18 0 -36.5 -6t-32.5 -18.5t-23 -32t-9 -45.5v-76h912v41q0 16 -0.5 30t-0.5 18q0 13 -5 29t-17 29.5t-31.5 22.5t-49.5 9h-133v-97h-438v97zM955 310v-52q0 -23 0.5 -52t0.5 -58t-10.5 -47.5t-26 -30t-33 -16t-31.5 -4.5q-14 -1 -29.5 -0.5
t-29.5 0.5h-32l-45 128h-439l-44 -128h-29h-34q-20 0 -45 1q-25 0 -41 9.5t-25.5 23t-13.5 29.5t-4 30v167h911zM163 247q-12 0 -21 -8.5t-9 -21.5t9 -21.5t21 -8.5q13 0 22 8.5t9 21.5t-9 21.5t-22 8.5zM316 123q-8 -26 -14 -48q-5 -19 -10.5 -37t-7.5 -25t-3 -15t1 -14.5
t9.5 -10.5t21.5 -4h37h67h81h80h64h36q23 0 34 12t2 38q-5 13 -9.5 30.5t-9.5 34.5q-5 19 -11 39h-368zM336 498v228q0 11 2.5 23t10 21.5t20.5 15.5t34 6h188q31 0 51.5 -14.5t20.5 -52.5v-227h-327z" />
    <glyph glyph-name="uni34AD" unicode="&#x34ad;" 
d="M511.5 808q-137.5 0 -254.5 -68t-185 -185t-68 -254.5t68 -254.5t185 -185t254.5 -68t254.5 68t185 185t68 254.5t-68 254.5t-185 185t-254.5 68zM511.5 -112q-112.5 0 -207 55.5t-150 150t-55.5 207t55.5 207t150 150t207 55.5t207 -55.5t150 -150t55.5 -207t-55.5 -207
t-150 -150t-207 -55.5zM385 523l380 -223l-380 -222v445z" />
    <glyph glyph-name="uniE600" unicode="&#xe600;" 
d="M792 383l-512 512l-60 -60l452 -452l-452 -452l60 -60l452 452z" />
    <glyph glyph-name="uniE605" unicode="&#xe605;" 
d="M715 249q-53 0 -98 -28.5t-69 -74.5q-71 36 -125.5 94.5t-85.5 132.5q53 21 85.5 68.5t32.5 105.5q0 78 -54.5 132.5t-132.5 54.5q-66 0 -117.5 -42t-65.5 -106h-2q-1 -14 -1 -28q-1 -5 -1 -11q0 -5 1 -10q1 -126 48 -241.5t126.5 -202t188.5 -144t232 -70.5q19 -4 38 -4
q38 0 73 14l-5 5l2 4q8 13 4.5 28t-16.5 23l-3 1q-21 13 -41 -1l-1 1q-6 -1 -12 -1q-16 0 -31 5q-76 8 -141 33v-1q-120 45 -211 136t-137 210q-36 87 -38 200q-1 7 -1 13q0 46 33 79t79.5 33t79 -33t32.5 -79q0 -42 -26.5 -73t-67.5 -38q-14 -1 -24 -11.5t-10 -25.5v-3
q0 -17 13 -28l-4 -6v0h1q36 -95 105 -170t161 -118v-1v1l8 3q5 -7 13 -12l3 -1q13 -8 28 -4.5t23 16.5q6 9 5 20q11 35 40.5 57t66.5 22q46 0 79 -33t33 -79q0 -18 -6 -35l1 -2q0 -1 -1 -2q-8 -12 -4.5 -26t16.5 -22l3 -1q19 -12 38 1l3 -4q24 43 24 92q0 77 -54.5 132
t-132.5 55zM901 545h-207l50 50q11 11 11 26.5t-11 26.5t-26.5 11t-26.5 -11l-106 -107q-4 -2 -7 -5q-11 -11 -11 -27t11 -28q3 -3 7 -5l106 -107q11 -10 26.5 -10t26.5 10.5t11 26t-11 26.5l-49 49h206q16 0 26.5 11t10.5 26t-10.5 26t-26.5 11z" />
    <glyph glyph-name="uniE609" unicode="&#xe609;" 
d="M956 323q-21 0 -35.5 -14.5t-14.5 -35.5v-257q0 -17 -12 -28.5t-28 -11.5h-723q-17 0 -29 11.5t-12 28.5v723q0 17 12 28.5t29 11.5h226q20 0 35 15t15 35.5t-15 35.5t-35 15h-226q-59 0 -100 -41.5t-41 -99.5v-723q0 -58 41 -99.5t100 -41.5h723q58 0 99 41.5t41 99.5
v257q0 21 -14.5 35.5t-35.5 14.5v0zM956 323zM448 162h4q20 0 34 13t16 32q3 36 15 89.5t30 88.5q12 23 19.5 36t25 38.5t33 42.5t40.5 39t52 36.5t63.5 27t77.5 18.5l9 3l-84 -177q-9 -18 -2 -38t25 -29q11 -5 22 -5q32 0 45 29l130 272q9 19 2 38.5t-25 28.5l-272 130
q-19 9 -38.5 2t-28.5 -26t-2 -38.5t25 -28.5l143 -68q-45 -9 -86.5 -26.5t-72 -36.5t-59 -45.5t-46.5 -46.5t-37 -48.5t-27 -43t-20 -37.5q-20 -37 -34.5 -93t-17.5 -81t-5 -42q-2 -20 11.5 -36t34.5 -18v0zM448 162z" />
    <glyph glyph-name="uniE60B" unicode="&#xe60b;" 
d="M958 494q-14 98 -89.5 161t-170.5 63q-59 0 -113 -27q-12 -6 -24 -13.5t-27 -18.5t-24 -16l-3 3q-77 72 -180 72q-69 0 -131 -36q-71 -41 -106 -115t-21 -155q15 -88 85 -158q138 -139 303 -305q23 -23 56 -23t56 23q209 209 315 318q92 96 74 227zM837 313
q-104 -108 -313 -318q-5 -4 -11 -4t-10 4q-163 163 -303 305q-55 56 -67 123q-10 60 16 116t79 87q47 27 99 27q78 0 136 -55q22 -20 47 -20q19 0 35 10q9 6 26 18q29 20 43 27q40 20 84 20q74 0 130 -48t66 -121q14 -99 -57 -171z" />
    <glyph glyph-name="uniE60C" unicode="&#xe60c;" 
d="M535 712q20 0 34 -14l352 -352q14 -14 14 -34t-14 -34l-352 -352q-14 -14 -34 -14t-34 14t-14 34t14 34l318 318l-318 318q-14 14 -14 34t14 34t34 14zM159.5 712q19.5 0 33.5 -14l352 -352q14 -14 14 -34t-14 -34l-352 -352q-14 -14 -33.5 -14t-34 14t-14.5 34t15 34
l318 318l-318 318q-15 14 -15 34t14.5 34t34 14z" />
    <glyph glyph-name="uniE60E" unicode="&#xe60e;" 
d="M576 499q-46 98 -128 172l-1 1q-22 17 -45 17q-24 0 -41.5 -16.5t-17.5 -40.5q0 -13 6.5 -23.5t12.5 -15t19 -12.5h1l1 -1q60 -59 92.5 -135t32.5 -159q0 -82 -31.5 -157.5t-90.5 -134.5q-1 -1 -6 -4q-37 -26 -37 -53q0 -23 17.5 -40t41.5 -17q20 0 39 13.5t30 26.5
q73 74 112 168t39 196q0 113 -46 215zM226 537l-2 2l-3 1q-16 8 -31 8q-3 0 -10 -1h-3q-22 -2 -35.5 -18t-13.5 -39q0 -12 5.5 -21.5t10.5 -14t15 -11.5q8 -5 12 -8q65 -62 65 -150q0 -84 -61 -146q-4 -2 -13 -7q-10 -5 -16 -9t-12 -13.5t-6 -22.5q0 -23 17.5 -40t41.5 -17
q34 0 60 23q49 45 76 104q29 61 29 129q0 74 -33 139.5t-93 111.5zM850 555q-43 120 -125 222q-23 35 -57 35q-24 0 -40 -16t-16 -40q0 -20 20 -44l1 -1q69 -88 106 -191q38 -107 38 -221q0 -116 -39 -224q-37 -104 -108 -191q-14 -17 -14 -38q0 -24 17.5 -41t43.5 -17
q18 0 33 9.5t22 26.5q78 99 120 217q44 123 44 255q0 134 -46 259z" />
    <glyph glyph-name="uniE60F" unicode="&#xe60f;" 
d="M448 101q46 -98 128 -172l1 -1q21 -17 44 -17q25 0 42.5 16.5t17.5 40.5q0 13 -6.5 23.5t-13 15t-18.5 12.5h-1t-1 1q-61 59 -93.5 135t-32.5 159q0 82 32 157.5t91 134.5q0 1 2 2.5t3 1.5q38 26 38 53q0 23 -17.5 40t-42.5 17q-19 0 -38 -13.5t-30 -26.5
q-73 -74 -112.5 -168t-39.5 -196q0 -113 47 -215zM798 63l2 -2l2 -1q17 -8 32 -8q3 0 10 1h1h1q22 2 35.5 18t13.5 39q0 12 -5 21.5t-10 14t-15 11.5q-8 5 -12 8q-66 62 -66 150q0 84 62 146q3 2 12 7q11 5 16.5 9t11.5 13.5t6 22.5q0 23 -17 40t-42 17q-34 0 -59 -23h-1
q-49 -45 -76 -104q-28 -61 -28 -129q0 -74 33 -139.5t93 -111.5zM173 45q44 -120 126 -222q23 -35 57 -35q24 0 40 16t16 40q0 20 -20 44l-1 1q-69 88 -106 191q-39 107 -39 221q0 116 39 224q38 104 108 191q15 17 15 38q0 24 -18 41t-43 17q-18 0 -33 -9.5t-23 -26.5
q-77 -99 -119 -217q-44 -123 -44 -255q0 -134 45 -259z" />
    <glyph glyph-name="uniE610" unicode="&#xe610;" horiz-adv-x="1025" 
d="M424 44q137 0 236 94h1q2 4 6 7q12 13 29.5 13t30.5 -13l284 -284q13 -13 13 -30.5t-12.5 -30t-30 -12.5t-30.5 12l-254 255q-118 -96 -270 -96q-116 0 -214.5 57t-155.5 155t-57 214t57 214.5t155.5 155.5t214.5 57t214.5 -57t155.5 -155.5t57 -214.5q0 -66 -22 -132
q-2 -16 -14 -26.5t-28 -10.5q-18 0 -30.5 12.5t-12.5 30.5v4q0 6 2 12v1q19 55 19 112q0 93 -46 172.5t-125.5 125.5t-173 46t-172.5 -46t-125 -125.5t-46 -173t46 -172.5t125 -125t173 -46z" />
    <glyph glyph-name="uniE614" unicode="&#xe614;" 
d="M440 797q82 -57 118 -175t6 -236l-36 -141l126 73q97 57 129 196q88 -98 88 -236q0 -121 -74.5 -217t-193.5 -126q-76 74 -110.5 141.5t-50.5 143.5l-33 161l-80 -143q-56 -98 -28 -247q-69 50 -108.5 126t-39.5 161q0 64 37.5 121.5t97.5 114.5q6 6 19 17q27 25 42 41.5
t37.5 48.5t35.5 76t18 100zM407 882q-9 0 -17 -9t-8 -23q-1 -35 -5 -65.5t-9 -52.5t-15 -43.5t-17 -34.5t-21.5 -29.5t-22 -23.5t-24 -22t-22.5 -21q-70 -67 -112 -134.5t-42 -145.5q0 -132 75.5 -238t195.5 -151q6 -2 11 -2q10 0 11.5 11t-3.5 20q-11 39 -17 66.5t-11 70
t2 81.5t26 72q18 -88 59.5 -166.5t130.5 -161.5q10 -8 26 -8q8 0 17 3q138 34 227.5 146.5t89.5 256.5q0 103 -44.5 190.5t-124.5 144.5q-11 9 -19 9q-9 0 -10 -16q-2 -43 -11.5 -84t-35 -84.5t-63.5 -66.5q21 78 13.5 159t-34.5 150.5t-77 123t-113 77.5q-3 1 -6 1z
M474 636l-122 -168q49 37 84 82.5t38 85.5z" />
    <glyph glyph-name="uniE615" unicode="&#xe615;" 
d="M512 -146q-90 0 -171.5 33.5t-145 97t-97.5 145t-34 170.5t34 170.5t97.5 145t145 97t171.5 33.5t171.5 -33.5t145 -97t97.5 -145t34 -170.5t-34 -170.5t-97.5 -145t-145 -97t-171.5 -33.5zM512 682q-77 0 -147 -29t-124.5 -83t-83.5 -123.5t-29 -146.5t29 -146.5
t83.5 -123.5t124.5 -83t147 -29t147 29t124.5 83t83.5 124t29 146.5t-29 146t-83.5 123.5t-124.5 83t-147 29zM736 332h-192v192q0 13 -9.5 22.5t-22.5 9.5t-22.5 -9.5t-9.5 -22.5v-192h-192q-13 0 -22.5 -9.5t-9.5 -22.5t9.5 -22.5t22.5 -9.5h192v-192q0 -13 9.5 -22.5
t22.5 -9.5t22.5 9.5t9.5 22.5v192h192q13 0 22.5 9.5t9.5 22.5t-9.5 22.5t-22.5 9.5z" />
    <glyph glyph-name="uniE618" unicode="&#xe618;" 
d="M843.5 142q-42.5 61 -42.5 137q0 70 40 127q22 32 70 73q-32 40 -64 62q-58 40 -131 40q-44 0 -106 -21q-61 -21 -88 -21q-22 0 -85 18q-65 19 -109 19q-106 0 -175 -89q-70 -90 -70 -230q0 -149 91 -310q92 -159 185 -159q31 0 81 21q50 20 88 20q40 0 93 -19
q56 -20 86 -20q79 0 158 121q51 77 76 153q-55 17 -97.5 78zM815 -56q-62 -94 -108 -94q-20 0 -65 16q-63 23 -114 23q-49 0 -111 -25q-39 -16 -58 -16q-59 0 -133 129q-82 147 -82 280q0 120 56 193q52 65 128 65q35 0 92 -16q72 -20 102 -20q38 0 107 24q53 17 87 17
q54 0 97 -29q6 -4 12 -9q-20 -21 -34 -41q-50 -73 -50 -162q0 -95 53 -172q32 -45 71 -72q-20 -45 -50 -91zM568 573q-23 -7 -64 -10q2 92 48 158q45 66 154 91q0 -2 1 -6.5t2 -7.5v-6v-6q0 -38 -18 -84t-57 -84q-33 -34 -66 -45z" />
    <glyph glyph-name="uniE61A" unicode="&#xe61a;" horiz-adv-x="1025" 
d="M844 382q0 69 -35 128t-93 93q-10 5 -17 5q-13 0 -22 -9t-9 -21q0 -18 16 -27q45 -26 71.5 -71t26.5 -98q0 -55 -27.5 -100.5t-73.5 -70.5q-15 -9 -15 -26q0 -13 9 -22t22 -9l15 4q60 33 96 93t36 131zM808 759q-10 6 -18 6q-12 0 -21 -9t-9 -22q0 -18 17 -27
q85 -50 136 -136.5t51 -189t-50.5 -188.5t-136.5 -136q-18 -10 -18 -28q0 -13 9 -22t21 -9q8 0 18 6q100 58 158.5 158.5t58.5 219.5q0 118 -58.5 218.5t-157.5 158.5zM81 594h151q19 0 57 20t129 87q32 23 68 51q1 -398 1 -399q0 -13 9 -22t21.5 -9t21.5 9t9 22v26v65v88
q0 49 -0.5 97t-0.5 87v65v25q0 23 -21 33t-39 -4q-42 -35 -115 -88q-111 -82 -141 -92h-131h-2h-67q-12 0 -21 -9t-9 -21v-487q0 -12 9 -21t21 -9h224q29 -10 128 -91q49 -40 102 -87q11 -10 25 -10q8 0 15 4q22 9 22 33v171v2v0q-1 12 -10 20.5t-21 8.5t-21 -9t-9 -22v-28
v-56v-28q-28 24 -53 45q-83 67 -119 87.5t-56 20.5h-1h-1h-168q-16 0 -21 5.5t-5 22.5v373q0 12 3.5 18t15.5 6z" />
    <glyph glyph-name="uniE61D" unicode="&#xe61d;" 
d="M506.5 799q85.5 0 163.5 -33q76 -32 134 -90.5t90 -133.5q33 -78 33 -164t-33 -164q-32 -75 -90 -133.5t-134 -90.5q-78 -33 -163.5 -33t-163.5 33q-76 32 -134 90.5t-90 133.5q-33 78 -33 164t33 164q32 75 90 133.5t134 90.5q78 33 163.5 33zM506 879
q-102 0 -194.5 -39.5t-160 -106.5t-107 -160t-39.5 -195t39.5 -195t107 -160t160 -107t194.5 -40t195 40t160.5 107t107 160t39.5 195t-39.5 195t-107 160t-160.5 106.5t-195 39.5zM506 879q-102 0 -194.5 -40t-160 -107t-107 -160t-39.5 -195t39.5 -194.5t107 -159.5
t160 -107t195 -40t195 40t160 107t107 159.5t39.5 194.5t-39.5 195t-107 160t-160 107t-195.5 40v0zM506 -80q-93 0 -177.5 36t-146 97.5t-98 146t-36.5 178t36.5 178t98 145.5t146 97.5t178 36.5t178 -36.5t146 -97.5t98 -146t36.5 -178t-36.5 -177.5t-98 -146t-146 -97.5
t-178.5 -36v0zM296 582q-12 0 -12 -21.5t12 -21.5h64v-405q0 -16 15.5 -15.5t30.5 15.5q8 8 89 86t157 152l76 73h33q7 0 10 11t0 22t-11 11h-191q-9 0 -12.5 -11t0 -22t11.5 -11h55l-183 -174v311h-144v0zM296 582z" />
    <glyph glyph-name="uniE61E" unicode="&#xe61e;" 
d="M960 396q0 15 -10 25.5t-25 10.5h-1l-261 38l-118 246q-9 22 -33 22q-12 0 -21 -7.5t-12 -19.5l-117 -241l-261 -38h-2q-15 0 -25 -10.5t-10 -25.5q0 -19 16 -29l189 -189l-45 -270q-1 -4 -1 -9q0 -15 10 -25t24 -10q10 0 19 6l237 127l232 -125q10 -10 25 -10
q14 0 24 10.5t10 25.5q0 9 -4 17l-44 263l194 193q10 10 10 25v0zM699 194l50 -263l-236 121l-235 -121l46 263l-194 193l269 43l114 234l113 -235l271 -38l-198 -197v0z" />
    <glyph glyph-name="uniE620" unicode="&#xe620;" 
d="M687 767q21 25 55.5 28.5t59.5 -19.5q101 -88 180 -179q23 -25 19.5 -59t-27.5 -56q-45 -48 -133.5 -135t-126.5 -127q-10 9 -29.5 28t-29.5 29q22 24 111.5 111t133.5 139q5 11 5.5 19t-5.5 18t-12.5 17t-15 16t-12.5 15q-12 9 -34.5 34.5t-43 39.5t-44.5 13
q-53 -44 -141.5 -134t-114.5 -115q-9 8 -31 30.5t-26 26.5q29 28 119.5 120t142.5 140zM310 162q51 50 174.5 174t190.5 190q45 -47 56 -58q-193 -193 -364 -363l-29 29zM49 130q43 46 126 127.5t114 114.5q7 -8 28.5 -29t29.5 -28q-28 -32 -77.5 -77.5t-90 -88t-64.5 -85.5
q44 -82 166 -160q39 40 118.5 119t119.5 119l29 -28l29 -30q-32 -31 -113.5 -113.5t-127.5 -125.5q-23 -26 -58.5 -29t-59.5 21q-104 93 -179 178q-22 25 -18.5 59t28.5 56z" />
    <glyph glyph-name="uniE622" unicode="&#xe622;" 
d="M62 706h361v-95h-88l130 -354h94l227 449h176v-96h-93l-356 -716h-81l-275 716h-95v96z" />
    <glyph glyph-name="uniE624" unicode="&#xe624;" horiz-adv-x="1025" 
d="M146 44q0 15 -10.5 26t-25.5 11t-26 -11t-11 -26t11 -26t26 -11t25.5 11t10.5 26zM805 373q0 29 -22.5 51t-51.5 22h-201q0 33 27.5 91t27.5 92q0 56 -18 83t-73 27q-15 -15 -22 -48.5t-17.5 -71.5t-33.5 -63q-13 -13 -44 -52q-3 -3 -13.5 -17t-18 -23.5t-20 -24.5
t-22.5 -25t-22 -20.5t-23 -15.5t-20 -5h-19v-366h19q7 0 17.5 -1.5t19 -3.5t22 -6.5t20 -6.5t20 -7t16.5 -6q121 -42 196 -42h69q109 0 109 96q0 14 -2 32q17 9 27 29.5t10 42t-11 39.5q31 29 31 68q0 14 -6 31.5t-14 27.5q18 0 30.5 26.5t12.5 46.5zM878 374q0 -51 -28 -93
q5 -19 5 -40q0 -44 -22 -82q2 -12 2 -25q0 -57 -34 -101q0 -80 -49 -126t-130 -46h-73q-55 0 -108.5 13t-123.5 37q-67 23 -79 23h-165q-30 0 -51.5 21.5t-21.5 51.5v366q0 30 21.5 51.5t51.5 21.5h157q20 14 78 89q33 43 61 73q14 14 20.5 48.5t17.5 72.5t35 62
q23 21 52 21q48 0 86 -18.5t58 -58t20 -106.5q0 -53 -27 -110h100q60 0 103.5 -43t43.5 -102z" />
    <glyph glyph-name="uniE62A" unicode="&#xe62a;" 
d="M911 662l1 1l-10 10v1h-1q-12 12 -26 21q0 1 -1 1l-1 1q-14 9 -29 16q-1 0 -2 0.5t-2 0.5q-16 7 -32 10h-1t-2 1q-19 3 -35 3h-519h-1q-14 0 -32 -3q-5 -1 -9 -2q-16 -4 -29 -9q-1 -1 -3 -1.5t-3 -1.5q-11 -5 -22 -12q-6 -4 -8 -5q-13 -9 -23 -19l-3 -3l-3 -3
q-8 -9 -14 -18q-5 -6 -6 -8l-1 -1l-1 -1h1q-29 -46 -29 -98v-372q0 -76 54.5 -130.5t131.5 -54.5h519q77 0 131.5 54.5t54.5 130.5v372q0 66 -45 119zM770 654h2q11 -1 22 -3h1l-303 -266l-293 256l1 1h2q8 4 17 7l3 1q2 0 4 1q13 3 25 3h519zM881 171q0 -46 -32.5 -78.5
t-78.5 -32.5h-519q-46 0 -79 32.5t-33 78.5v372q0 22 9 43l344 -306l366 329q23 -30 23 -66v-372zM881 171z" />
    <glyph glyph-name="uniE62E" unicode="&#xe62e;" 
d="M916 471l-57 16q-4 99 -45 162q-17 26 -35 47.5t-47 47t-62 42.5t-80 28.5t-100.5 11.5t-100.5 -11.5t-79.5 -28.5t-62 -42.5t-47 -47t-34.5 -47.5q-43 -65 -45 -169l-22 -13q-16 -9 -16 -28v-145q0 -13 9.5 -23t23.5 -10t24 10t10 23v126l21 13q17 10 16 30
q-1 29 6.5 73t28.5 76q19 30 40 52.5t52.5 46t76.5 36t99 12.5t98.5 -12.5t76.5 -36t52.5 -46t40.5 -52.5q17 -26 25.5 -65t9 -57t0.5 -27q-1 -12 6 -21.5t18 -12.5l57 -16v-119q0 -13 10 -23t23.5 -10t23.5 10t10 23v145q0 11 -7 20t-18 12zM409 164q-25 19 -40 37
q-13 15 -27 51.5t-18 81.5q-7 54 -3.5 98t23.5 85q12 25 31.5 41.5t42.5 23.5t39.5 9.5t32.5 2.5q87 0 127 -48q15 -18 22 -42.5t8 -43.5t1 -59q0 -14 10 -23.5t23.5 -9.5t23.5 9.5t10 23.5q0 45 -1.5 68.5t-12.5 58t-33 60.5q-59 73 -178 73q-22 0 -45.5 -4t-55 -14.5
t-60 -35t-45.5 -61.5q-24 -51 -29 -104.5t2 -113.5q5 -52 22.5 -99t37.5 -71q15 -17 38 -37v-5q-64 -6 -113 -25q-126 -47 -126 -123q0 -14 10 -24t24 -10t23.5 10t9.5 24q0 30 83 61q57 21 123 22q14 0 23.5 10t9.5 24v52q0 17 -13 27zM724 91q-49 19 -114 25v21
q0 14 -9.5 23.5t-23.5 9.5t-23.5 -9.5t-9.5 -23.5v-52q0 -14 9.5 -24t22.5 -10q67 -1 124 -22q83 -31 83 -61q0 -14 9.5 -24t23.5 -10t24 10t10 24q0 76 -126 123zM812 313q8 11 5.5 25t-13.5 21.5t-25 5t-22 -13.5q-13 -20 -44.5 -32.5t-67.5 -16t-68 -3.5t-54 4
q-14 2 -25 -6t-13.5 -21.5t5.5 -25t22 -13.5q29 -5 71 -5q71 0 134.5 18t94.5 63z" />
    <glyph glyph-name="uniE630" unicode="&#xe630;" 
d="M40 608q0 20 14.5 34.5t35 14.5t34.5 -14l379 -380l385 385q14 14 34.5 14t35 -14t14.5 -34.5t-15 -34.5l-419 -420q-14 -14 -34.5 -14t-35.5 14l-413 414q-15 14 -15 35z" />
    <glyph glyph-name="uniE638" unicode="&#xe638;" 
d="M984 160.5q0 -20.5 -14.5 -35t-35 -14.5t-34.5 14l-379 380l-385 -385q-14 -14 -34.5 -14t-35 14t-14.5 34.5t15 34.5l419 420q14 14 34.5 14t35.5 -14l413 -414q15 -14 15 -34.5z" />
    <glyph glyph-name="uniE639" unicode="&#xe639;" horiz-adv-x="1038" 
d="M701 239q78 48 124.5 128t46.5 175q0 96 -47.5 177.5t-129 129t-177 47.5t-176.5 -47.5t-128.5 -129t-47.5 -177.5q0 -95 46 -175t124 -128q-150 -36 -243 -124t-93 -199q0 -18 13 -31t31 -13t31 13t13 31q0 68 58.5 127.5t158 94.5t214.5 35t214.5 -35t158 -94.5
t58.5 -127.5q0 -18 13 -31t31 -13t31 13t13 31q0 111 -93 199t-244 124zM254 542q0 110 77.5 188t187 78t187.5 -78t78 -188t-78 -188t-187.5 -78t-187 78t-77.5 188z" />
    <glyph glyph-name="uniE63F" unicode="&#xe63f;" 
d="M928 812h-704q-40 0 -68 -28t-28 -68v-64h-32q-40 0 -68 -28t-28 -68v-640q0 -53 37.5 -90.5t90.5 -37.5h768q53 0 90.5 37.5t37.5 90.5v800q0 40 -28 68t-68 28zM960 -84q0 -26 -19 -45t-45 -19h-768q-26 0 -45 19t-19 45v640q0 13 9.5 22.5t22.5 9.5h32v-640
q0 -13 9.5 -22.5t22.5 -9.5t22.5 9.5t9.5 22.5v768q0 13 9.5 22.5t22.5 9.5h704q13 0 22.5 -9.5t9.5 -22.5v-800zM624 396h256q7 0 11.5 4.5t4.5 11t-4.5 11.5t-11.5 5h-256q-7 0 -11.5 -5t-4.5 -11.5t4.5 -11t11.5 -4.5zM624 492h256q7 0 11.5 4.5t4.5 11t-4.5 11.5
t-11.5 5h-256q-7 0 -11.5 -5t-4.5 -11.5t4.5 -11t11.5 -4.5zM624 588h256q7 0 11.5 4.5t4.5 11t-4.5 11.5t-11.5 5h-256q-7 0 -11.5 -5t-4.5 -11.5t4.5 -11t11.5 -4.5zM528 -52h-256q-7 0 -11.5 -5t-4.5 -11.5t4.5 -11t11.5 -4.5h256q7 0 11.5 4.5t4.5 11t-4.5 11.5t-11.5 5
zM528 44h-256q-7 0 -11.5 -5t-4.5 -11.5t4.5 -11t11.5 -4.5h256q7 0 11.5 4.5t4.5 11t-4.5 11.5t-11.5 5zM528 140h-256q-7 0 -11.5 -5t-4.5 -11.5t4.5 -11t11.5 -4.5h256q7 0 11.5 4.5t4.5 11t-4.5 11.5t-11.5 5zM880 -52h-256q-7 0 -11.5 -5t-4.5 -11.5t4.5 -11t11.5 -4.5
h256q7 0 11.5 4.5t4.5 11t-4.5 11.5t-11.5 5zM880 44h-256q-7 0 -11.5 -5t-4.5 -11.5t4.5 -11t11.5 -4.5h256q7 0 11.5 4.5t4.5 11t-4.5 11.5t-11.5 5zM880 140h-256q-7 0 -11.5 -5t-4.5 -11.5t4.5 -11t11.5 -4.5h256q7 0 11.5 4.5t4.5 11t-4.5 11.5t-11.5 5zM880 332h-608
q-7 0 -11.5 -5t-4.5 -11.5t4.5 -11t11.5 -4.5h608q7 0 11.5 4.5t4.5 11t-4.5 11.5t-11.5 5zM880 236h-608q-7 0 -11.5 -5t-4.5 -11.5t4.5 -11t11.5 -4.5h608q7 0 11.5 4.5t4.5 11t-4.5 11.5t-11.5 5zM288 396h224q13 0 22.5 9.5t9.5 22.5v224q0 13 -9.5 22.5t-22.5 9.5h-224
q-13 0 -22.5 -9.5t-9.5 -22.5v-224q0 -13 9.5 -22.5t22.5 -9.5zM320 620h160v-160h-160v160z" />
    <glyph glyph-name="uniE640" unicode="&#xe640;" 
d="M248 410l475 475q11 11 26.5 11t26.5 -11t11 -26.5t-11 -26.5l-449 -448l449 -448q11 -11 11 -26.5t-11 -26.5t-26.5 -11t-26.5 11l-475 475q-11 11 -11 26t11 26z" />
    <glyph glyph-name="uniE64A" unicode="&#xe64a;" 
d="M230 -180q-48 0 -81.5 33.5t-33.5 81.5v333l-38 -38q-13 -13 -32 -13t-32 13q-13 25 -13 38q0 6 13 32l467 467q13 13 32 13t32 -13l467 -467q13 -26 13 -32q0 -19 -13 -32t-32 -13t-32 13l-435 429l-301 -301v-422q0 -10 8 -18t18 -8h115v186q0 19 13 31.5t32 12.5h230
q19 0 32 -12.5t13 -32t-13 -32t-32 -12.5h-185v-186q0 -19 -13 -32t-32 -13h-167v-6zM627 -180q-19 0 -32 13t-13 32t13 32t32 13h160q10 0 18 8t8 17v256q0 19 12.5 32t32 13t32 -13t12.5 -32v-256q0 -48 -33.5 -81.5t-81.5 -33.5h-160z" />
    <glyph glyph-name="uniE64D" unicode="&#xe64d;" 
d="M122 422q-48 0 -85 -37t-37 -85t37 -85t85 -37q51 0 86 36.5t35 85.5t-35 85.5t-86 36.5zM512 422q-52 0 -87 -36.5t-35 -85.5q0 -48 37 -85t85 -37t85 37t37 85q0 49 -35 85.5t-87 36.5zM902 422q-51 0 -86 -36.5t-35 -85.5q0 -48 36.5 -85t84.5 -37t85 37t37 85t-37 85
t-85 37z" />
    <glyph glyph-name="uniE676" unicode="&#xe676;" 
d="M304 636h432v-64h-432v64v0zM304 478h432v-64h-432v64v0zM304 319h287v-64h-287v64v0zM518 840zM190 -126v246q-87 65 -138.5 152t-51.5 181q0 88 42 169.5t111.5 140t163.5 93.5t195 35t195 -35t163.5 -93.5t111.5 -140t42 -170t-42 -170t-111.5 -140t-163.5 -93
t-195 -34.5q-39 0 -80 6zM512 827q-118 0 -221 -50t-165 -137t-62 -187q0 -82 48.5 -158.5t127.5 -132.5l14 -9v-165l165 99l11 -1q43 -7 82 -7q118 0 221 50t165 136.5t62 187t-62 187.5t-165 137t-221 50z" />
    <glyph glyph-name="uniE678" unicode="&#xe678;" 
d="M512 -207l-28 27q-25 23 -56 54.5t-93 103t-109 137t-84 145.5t-37 140q0 110 54.5 204t148.5 148.5t204 54.5t204 -54.5t148.5 -148.5t54.5 -204q0 -60 -37 -140t-84 -145.5t-109 -137t-93 -103t-56 -54.5zM512 725q-88 0 -163 -43.5t-118.5 -118.5t-43.5 -163
q0 -49 34 -118t88 -140t104 -128.5t99 -106.5q49 49 99 106.5t104 128.5t88 140t34 118q0 88 -43.5 163t-118.5 118.5t-163 43.5zM513 181q-91 0 -155 64.5t-64 155t64 155t155 64.5t155.5 -64.5t64.5 -155t-64.5 -155t-155.5 -64.5zM513 538q-57 0 -97 -40.5t-40 -97
t40 -97t97 -40.5t97 40.5t40 97t-40 97t-97 40.5z" />
    <glyph glyph-name="uniE680" unicode="&#xe680;" 
d="M1 470h1023v-171h-1023v171zM1 44h1023v-171h-1023v171zM1 896h1023v-170h-1023v170z" />
    <glyph glyph-name="uniE697" unicode="&#xe697;" 
d="M954 371l-3 19l-73 24q-10 34 -26 64l34 69l-11 15q-42 58 -101 101l-15 11l-69 -34q-31 16 -64 26l-24 73l-19 3q-71 11 -142 0l-19 -3l-24 -73q-34 -10 -64 -26l-69 34l-15 -11q-58 -42 -101 -101l-11 -15l34 -69q-16 -30 -26 -64l-73 -24l-3 -19q-6 -38 -6 -71t6 -71
l3 -19l73 -24q10 -34 26 -64l-34 -69l11 -15q23 -32 46 -55q24 -23 55 -46l15 -11l69 34q30 -16 64 -26l24 -73l19 -3q38 -6 71 -6t71 6l19 3l24 73q34 10 64 26l69 -34l15 11q31 23 54.5 46.5t46.5 54.5l11 15l-34 69q16 30 26 64l73 24l3 19q6 38 6 71t-6 71zM893 258
l-67 -22l-5 -17q-11 -43 -33 -80l-9 -15l32 -64q-13 -17 -28 -32q-13 -13 -31 -27l-64 32l-15 -9q-37 -22 -80 -33l-17 -5l-22 -67q-42 -5 -84 0l-22 67l-17 5q-43 11 -80 33l-15 9l-64 -32q-17 13 -32 27q-13 14 -27 32l32 64l-9 15q-22 37 -33 80l-5 17l-67 22
q-3 22 -3 42t3 42l67 22l5 17q11 43 33 80l9 15l-32 64q26 33 59 59l64 -32l15 9q37 22 80 33l17 5l22 67q42 5 84 0l22 -67l17 -5q43 -11 80 -33l15 -9l64 32q33 -26 59 -59l-32 -64l9 -15q22 -37 33 -80l5 -17l67 -22q3 -22 3 -42t-3 -42zM512 428q-53 0 -90.5 -37.5
t-37.5 -90.5t37.5 -90.5t90.5 -37.5t90.5 37.5t37.5 90.5t-37.5 90.5t-90.5 37.5zM512 236q-26 0 -45 19t-19 45t19 45t45 19t45 -19t19 -45t-19 -45t-45 -19z" />
    <glyph glyph-name="uniE6A8" unicode="&#xe6a8;" 
d="M257 511q0 -27 19 -45.5t45.5 -18.5t45 18.5t18.5 45t-18.5 45.5t-45 19t-45.5 -19t-19 -45zM257 511zM842 0h-659q-48 0 -82.5 34.5t-34.5 82.5v532q0 48 34.5 82.5t82.5 34.5h659q49 0 83 -34.5t34 -82.5v-532q0 -48 -34 -82.5t-83 -34.5zM183 702q-22 0 -37.5 -15.5
t-15.5 -37.5v-532q0 -22 15.5 -37.5t37.5 -15.5h659q22 0 38 15.5t16 37.5v532q0 22 -16 37.5t-38 15.5h-659zM183 702zM225 127q-4 0 -9 1q-13 4 -19 16t-2 24q3 9 8 23t22 45t36 55t50.5 42.5t66.5 17.5t92 -18q24 -7 35.5 -9.5t35 -5.5t38.5 1q15 3 23.5 18t20.5 52
q8 26 13 40.5t19.5 39t31 38t45.5 24.5t65 11q13 0 22.5 -9.5t9.5 -23t-9.5 -22.5t-22.5 -9q-28 0 -46.5 -7t-31 -23t-19.5 -32t-17 -46q-5 -19 -9 -29t-12 -27t-17 -27t-23.5 -19t-32.5 -12q-26 -1 -39.5 -2.5t-35.5 3t-32.5 7t-29.5 8.5q-50 15 -76 16h-1q-22 0 -43 -16
t-36 -39.5t-25 -44.5t-15 -39q-7 -22 -31 -22zM225 127z" />
    <glyph glyph-name="uniE6C1" unicode="&#xe6c1;" 
d="M931 584l-131 131q-2 3 -5.5 7t-15 12.5t-23.5 12t-29 -1t-33 -20.5l-482 -484l240 -238l481 483q2 2 5.5 5t9.5 13.5t8 21t-3.5 26.5t-21.5 32zM116 51l147 -145l141 49l-236 240zM64 -145l134 18l-110 113z" />
    <glyph glyph-name="uniE6C5" unicode="&#xe6c5;" 
d="M951 238v-73h-366h-146h-366v73h878zM73 750h878v-439h-878v439zM0 823v-732h439v-73h-146v-73h438v73h-146v73h439v732h-1024z" />
    <glyph glyph-name="uniE701" unicode="&#xe701;" 
d="M778 435q31 0 31 -51t-31 -51h-532q-31 0 -31 51t31 51h532v0z" />
    <glyph glyph-name="uniE710" unicode="&#xe710;" 
d="M512 219q80 0 136.5 56.5t56.5 136.5v221q0 80 -56.5 136.5t-136.5 56.5t-136.5 -56.5t-56.5 -136.5v-221q0 -80 56.5 -136.5t136.5 -56.5zM843 412h-55q0 -114 -81 -195t-195 -81t-195 81t-81 195h-55q0 -130 88 -224.5t215 -105.5v-84h-89h-4q-9 -2 -15 -9t-6 -16v-5
q0 -10 6 -17t15 -8q3 -1 4 -1h234q1 0 4 1q9 1 15 8t6 17v5q0 9 -6 16t-15 9h-4h-89v84q127 11 215 105.5t88 224.5z" />
    <glyph glyph-name="uniE764" unicode="&#xe764;" 
d="M751 539q-45 48 -107 75t-132 27q-92 0 -171 -45.5t-124.5 -124.5t-45.5 -171.5t45.5 -171t124.5 -124.5t171 -46q117 0 208.5 73t120.5 183h-90q-26 -75 -91.5 -122.5t-147.5 -47.5q-105 0 -180.5 75t-75.5 180.5t75.5 181t180.5 75.5q103 0 180 -77l-137 -137h299v299z
" />
    <glyph glyph-name="uniE88D" unicode="&#xe88d;" 
d="M512 -212q139 0 257 68.5t186.5 186.5t68.5 257t-68.5 257t-186.5 186.5t-257 68.5t-257 -68.5t-186.5 -186.5t-68.5 -257t68.5 -257t186.5 -186.5t257 -68.5zM512 716q172 0 294 -122t122 -294t-122 -294t-294 -122t-294 122t-122 294t122 294t294 122zM256 492
q0 27 18.5 45.5t45.5 18.5t45.5 -18.5t18.5 -45.5t-18.5 -45.5t-45.5 -18.5t-45.5 18.5t-18.5 45.5zM640 492q0 27 18.5 45.5t45.5 18.5t45.5 -18.5t18.5 -45.5t-18.5 -45.5t-45.5 -18.5t-45.5 18.5t-18.5 45.5zM704 185l82 -50q-42 -71 -115 -113t-159 -42t-159 42
t-115 113l82 50q30 -50 81 -79.5t111 -29.5t111 29.5t81 79.5z" />
    <glyph glyph-name="uniEA1F" unicode="&#xea1f;" 
d="M308 512q10 -9 23 -9t23 9l126 127v-563q0 -13 9.5 -22.5t22.5 -9.5t22.5 9.5t9.5 22.5v563l126 -127q10 -9 23 -9t23 9q9 10 9 23t-9 23l-181 181q-10 9 -23 9t-23 -9l-181 -181q-9 -10 -9 -23t9 -23zM896 140v-192q0 -13 -9.5 -22.5t-22.5 -9.5h-704q-13 0 -22.5 9.5
t-9.5 22.5v192q0 13 -9.5 22.5t-22.5 9.5t-22.5 -9.5t-9.5 -22.5v-224q0 -26 19 -45t45 -19h768q26 0 45 19t19 45v224q0 13 -9.5 22.5t-22.5 9.5t-22.5 -9.5t-9.5 -22.5z" />
    <glyph glyph-name="uniEC99" unicode="&#xec99;" 
d="M888.5 601.5q-24.5 24.5 -60.5 24.5q-6 0 -13 -1v1h-4q-9 53 -43 100q-32 44 -81 74l29 41v4v2l1 2q1 7 1 10q0 16 -10 26.5t-26 10.5q-18 0 -30 -18l-33 -48q-53 18 -107 18t-107 -18l-33 48q-12 18 -30 18q-16 0 -26 -10.5t-10 -26.5q0 -11 7 -19l26 -37
q-50 -30 -82 -75q-34 -47 -42 -100h-6v-1q-6 1 -12 1q-37 0 -61 -24t-24 -60v-269q0 -36 24 -60.5t60 -24.5q6 0 13 1v-107q0 -25 17.5 -42.5t42.5 -17.5h37v-67q0 -36 24 -60.5t60.5 -24.5t60.5 24.5t24 60.5v66h73v-66q0 -36 24.5 -60.5t60.5 -24.5t61 25q24 24 24 60v67
h36q25 0 43 17.5t18 42.5v105q6 -1 12 -1q36 0 60.5 24.5t24.5 60.5v268q1 36 -23.5 60.5zM209 272q0 -12 -12 -12t-12 12v269q0 12 12 12t12 -12v-269zM358 726q66 48 154 48t154 -48q56 -42 71 -100h-450q15 58 71 100zM403 -45q-1 -10 -12 -10q-12 0 -12 12v67h24v-69z
M646 -45q-2 -10 -12 -10q-13 0 -13 12v67h25v-69zM743 96h-461v457h461v-457zM840 272q0 -12 -12.5 -12t-12.5 12v269q0 12 12.5 12t12.5 -12v-269zM585 712q-16 0 -26 -10.5t-10 -26.5t10 -26t26 -10t26.5 10t10 26t-10.5 26.5t-26 10.5zM439.5 712q-15.5 0 -26 -10.5
t-10.5 -26.5t10.5 -26t26 -10t26 10t10.5 26t-10.5 26.5t-26 10.5z" />
  </font>
</defs>
</svg>
